<?xml version="1.0" encoding="UTF-8"?><svg id="Layer_1" xmlns="http://www.w3.org/2000/svg" viewBox="0 0 226.18 75"><path d="M32.81,46.66c5.41-.84,8.69-14.17,9.68-19.12.83-3.85,1.48-8.12,1.94-12.04.56-4.04.82-8.11,1.19-12.18-.14,6.09-.28,12.3-.92,18.38-.81,7.67-1.83,15.67-5.39,22.62-1.48,2.54-3.85,5.67-7.21,5.26-1.91-.5-1.22-3.34.7-2.92h0Z"/><path d="M61.93,49.58c-8.29.49-11.44-15.37-12.38-21.61-1.31-8.1-1.62-16.47-1.81-24.65.43,5.08.92,10.26,1.63,15.32,1.31,7.9,2.68,16.22,6.57,23.27,1.06,1.86,2.39,3.67,4.34,4.57.3.07.65.2.94.18.04,0,.15-.01.04,0,1.92-.41,2.59,2.45.67,2.92h0Z"/><path d="M57.42,35.35c.19-.25.38-.5.56-.77.86-.7,1.56-1.38,2.1-2.03s.94-1.26,1.19-1.82l-.18-.84c.15-.29.53-.64,1.13-1.04s1.09-.6,1.47-.6c.4,0,.74.12,1.01.35s.54.48.8.74c.13.08.22.15.28.19.47.35.82.84,1.05,1.46s.35,1.38.35,2.27c0,.47-.18,1.14-.54,2.01s-.54,1.53-.54,1.98c0,.06.02.11.06.14s.1.05.17.05c.15,0,.33-.07.54-.2s.44-.32.69-.55c.62-.61,1-.95,1.12-1.01s.29-.17.47-.33c.09.23.21.49.33.76s.25.56.37.86c-.11.09-.23.21-.36.33s-.3.28-.48.44c-.4.29-.92.65-1.56,1.06s-1.4.89-2.29,1.43c-.23.15-.5.28-.81.37-.49,0-.86-.07-1.11-.22s-.37-.38-.37-.71c0-.13.03-.28.08-.45s.13-.35.22-.55c.07-.15.15-.31.23-.47s.15-.32.21-.48c.26-.74.45-1.42.59-2.06s.2-1.2.2-1.71c0-.62-.1-1.1-.29-1.42s-.48-.52-.87-.56c-.26.14-.54.34-.84.6s-.62.58-.93.97c-.34.42-.64.77-.91,1.04s-.49.45-.67.54c-.11.18-.28.38-.51.6s-.54.46-.93.72l-.11.21c-.05.09-.12.2-.23.32-.09-.27-.2-.54-.32-.8s-.25-.54-.39-.82Z"/><path d="M69.15,35.35c.27-.28.68-.62,1.24-1.02s.97-.73,1.24-.98c.18-.21.41-.47.69-.76s.62-.65,1-1.06c.23-.21.46-.38.69-.49.22-.12.45-.18.67-.18.28,0,.5.07.66.21s.24.36.24.67c0,.46-.18,1.2-.53,2.21s-.53,1.79-.53,2.32c0,.12.03.2.08.25s.11.07.18.07l.09-.02c.22-.14.48-.32.78-.54s.64-.48,1.01-.8c.3-.28.68-.65,1.13-1.11s.98-.98,1.59-1.58c.23-.19.5-.43.8-.72s.64-.64,1.01-1.05c.15-.21.37-.38.64-.49s.61-.18,1.01-.18c.27,0,.47.05.61.15s.2.25.2.45c0,.08,0,.16-.03.24s-.03.15-.04.22c-.08.35-.21.78-.37,1.29s-.36,1.11-.6,1.8c-.2.43-.41.95-.62,1.56s-.45,1.27-.69,2l.12.16c.25-.12.61-.4,1.1-.83.48-.44,1.1-1.03,1.83-1.77l.7,1.62-.34.34c-.13.13-.31.28-.54.43-1.25.89-2.33,1.77-3.22,2.65s-1.61,1.74-2.13,2.59c-.78,1.29-1.44,2.34-1.96,3.15-.52.81-.9,1.38-1.13,1.71-.81,1.07-1.58,1.86-2.3,2.37s-1.43.77-2.13.77c-.26,0-.45-.05-.56-.16s-.18-.27-.18-.49c0-.12.03-.26.09-.44s.16-.36.32-.56c.22-.32.43-.64.61-.98l.52-.46c.05-.15.07-.26.07-.32.05-.06.11-.13.2-.21.09-.08.19-.18.31-.28.08-.21.3-.56.66-1.05s.86-1.11,1.5-1.87c.48-.56.92-1.06,1.32-1.5s.74-.81,1.02-1.12c.05-.09.1-.21.15-.33s.1-.26.13-.39c.15-.3.32-.67.5-1.11s.4-.94.66-1.53c.12-.34.22-.73.3-1.17s.16-.92.23-1.43c-.02-.05-.04-.11-.04-.18s-.03-.18-.08-.33c-.21.11-.44.26-.69.47s-.52.46-.82.74c-.39.5-.78.92-1.18,1.26s-.79.59-1.18.76c-.26.5-.59.88-.99,1.12s-.87.36-1.4.36c-.39,0-.68-.09-.88-.27s-.3-.46-.3-.83c0-.07,0-.16.03-.26s.04-.23.08-.37c-.05-.12-.11-.28-.18-.49.05-.2.09-.42.12-.67,0-.35-.03-.62-.08-.79s-.14-.26-.25-.26l-.07.04c-.13.09-.31.23-.54.42s-.52.42-.84.69c-.06-.15-.13-.33-.22-.54s-.18-.46-.27-.74c-.02-.07-.05-.13-.09-.19s-.08-.11-.12-.14Z"/><path d="M84.9,34.57l1.6-1.05c.06-.06.13-.14.21-.24s.18-.24.28-.43c.08-.15.19-.28.33-.39s.29-.2.47-.28c.09-.12.23-.26.4-.44s.4-.38.67-.62c.13-.07.29-.17.49-.31s.42-.31.65-.54c1.07-1.01,2-1.76,2.8-2.27s1.48-.76,2.03-.76c.3,0,.53.06.68.19s.22.31.22.54c0,.25-.04.46-.13.65s-.23.35-.41.47c-.29.21-.61.45-.95.7-.19.25-.42.51-.69.78s-.59.55-.95.82c-.12.15-.22.29-.3.4-.06.06-.17.16-.33.32s-.38.33-.65.53c-.12.26-.37.59-.76,1s-.92.9-1.57,1.48c-.08.08-.23.27-.44.56s-.49.68-.83,1.16l.12.16c.26-.08.53-.22.81-.42s.59-.46.93-.79c.4-.36.72-.66.98-.89s.43-.38.54-.45l.25-.14c.08-.05.18-.11.28-.18.54-.64,1.04-1.12,1.51-1.43s.9-.47,1.3-.47c.25,0,.43.1.56.29s.21.48.23.87c-.02.59-.04,1.15-.04,1.69-.01.38.09.71.31,1.01s.5.45.85.45c.11,0,.21-.03.31-.09s.2-.13.31-.23c.08-.11.16-.21.24-.3s.16-.19.24-.28c.05-.02.11-.06.2-.12s.17-.13.25-.21c.16.35.3.66.41.92s.2.5.25.69c-.27.25-.54.5-.8.76s-.54.51-.83.75c-.35.27-.69.47-1.02.61s-.66.2-.98.2c-.76,0-1.35-.22-1.76-.65s-.65-1.09-.72-1.97c0-.11-.01-.21-.04-.33s-.09-.23-.18-.34c-.06.06-.12.12-.19.18s-.15.15-.25.25l-.57.44c-.23.18-.5.39-.8.63-.41.42-.76.77-1.04,1.04s-.48.46-.6.58c-.23.2-.51.4-.82.6s-.66.4-1.05.62c-.25.13-.46.23-.63.31s-.3.11-.39.11c-.56,0-.98-.14-1.25-.41s-.4-.7-.4-1.27c0-.32.07-.62.2-.91.13-.29.34-.56.61-.83.02-.15.04-.28.04-.37,0-.06-.01-.12-.04-.18s-.07-.14-.11-.22l-.24-.55c-.09-.21-.18-.42-.29-.66.05-.05.11-.14.2-.27s.19-.3.31-.5Z"/><path d="M97.85,35.35c.05-.09.16-.25.33-.48s.41-.51.73-.85c.33-.33.6-.64.82-.92s.37-.54.47-.76c.14-.27.31-.61.5-1.02s.41-.88.64-1.42c.04-.06.29-.25.76-.57s.76-.48.88-.48c.15,0,.27.11.34.33s.11.55.11.99c0,.66,0,1.2-.03,1.64s-.06.79-.13,1.06c.02.06.05.13.07.21s.05.18.09.28c-.02.12-.05.24-.09.37,0,1.39.05,2.43.16,3.12s.25,1.03.42,1.03c.22,0,.54-.3.95-.89s.91-1.49,1.49-2.68c.59-1.16,1.03-2.11,1.34-2.86s.48-1.3.53-1.68c.11-.66.28-1.15.52-1.49s.57-.5.98-.5c.12,0,.2.03.25.1s.07.16.07.29c0,.47-.06.95-.18,1.43s-.31.97-.57,1.45c0,.32-.07.67-.22,1.07s-.37.84-.68,1.32c-.11.32-.19.63-.25.93-.02.15-.29.69-.8,1.62-.51.93-.84,1.46-.98,1.62,0,.28-.13.62-.4,1.01s-.69.84-1.25,1.34c-.12.15-.24.3-.37.44s-.25.28-.37.42c-.13.16-.27.29-.43.38s-.34.13-.55.13c-.63,0-1.11-.24-1.44-.72s-.49-1.2-.49-2.16c.04-.18.06-.33.07-.46-.06-.14-.12-.33-.18-.55s-.1-.48-.12-.76c0-.38,0-.68,0-.91s-.03-.39-.06-.47l.12-.4-.18-.11c-.08.04-.3.23-.65.6s-.85.9-1.49,1.6c-.08-.26-.18-.52-.3-.77s-.25-.54-.4-.84Z"/><path d="M110,34.57l1.6-1.05c.06-.06.13-.14.21-.24s.18-.24.28-.43c.08-.15.19-.28.33-.39s.29-.2.47-.28c.09-.12.23-.26.4-.44s.4-.38.67-.62c.13-.07.29-.17.49-.31s.42-.31.65-.54c1.07-1.01,2-1.76,2.8-2.27s1.48-.76,2.03-.76c.3,0,.53.06.68.19s.22.31.22.54c0,.25-.04.46-.13.65s-.23.35-.41.47c-.29.21-.61.45-.95.7-.19.25-.42.51-.69.78s-.59.55-.95.82c-.12.15-.22.29-.3.4-.06.06-.17.16-.33.32s-.38.33-.65.53c-.12.26-.37.59-.76,1s-.92.9-1.57,1.48c-.08.08-.23.27-.44.56s-.49.68-.83,1.16l.12.16c.26-.08.53-.22.81-.42s.59-.46.93-.79c.4-.36.72-.66.98-.89s.43-.38.54-.45l.25-.14c.08-.05.18-.11.28-.18.54-.64,1.04-1.12,1.51-1.43s.9-.47,1.3-.47c.25,0,.43.1.56.29s.21.48.23.87c-.02.59-.04,1.15-.04,1.69-.01.38.09.71.31,1.01s.5.45.85.45c.11,0,.21-.03.31-.09s.2-.13.31-.23c.08-.11.16-.21.24-.3s.16-.19.24-.28c.05-.02.11-.06.2-.12s.17-.13.25-.21c.16.35.3.66.41.92s.2.5.25.69c-.27.25-.54.5-.8.76s-.54.51-.83.75c-.35.27-.69.47-1.02.61s-.66.2-.98.2c-.76,0-1.35-.22-1.76-.65s-.65-1.09-.72-1.97c0-.11-.01-.21-.04-.33s-.09-.23-.18-.34c-.06.06-.12.12-.19.18s-.15.15-.25.25l-.57.44c-.23.18-.5.39-.8.63-.41.42-.76.77-1.04,1.04s-.48.46-.6.58c-.23.2-.51.4-.82.6s-.66.4-1.05.62c-.25.13-.46.23-.63.31s-.3.11-.39.11c-.56,0-.98-.14-1.25-.41s-.4-.7-.4-1.27c0-.32.07-.62.2-.91.13-.29.34-.56.61-.83.02-.15.04-.28.04-.37,0-.06-.01-.12-.04-.18s-.07-.14-.11-.22l-.24-.55c-.09-.21-.18-.42-.29-.66.05-.05.11-.14.2-.27s.19-.3.31-.5Z"/><path d="M122.95,35.35c.19-.25.38-.5.56-.77.86-.7,1.56-1.38,2.1-2.03s.94-1.26,1.19-1.82l-.18-.84c.15-.29.53-.64,1.13-1.04s1.09-.6,1.47-.6c.4,0,.74.12,1.01.35s.54.48.8.74c.13.08.22.15.28.19.47.35.82.84,1.05,1.46s.35,1.38.35,2.27c0,.47-.18,1.14-.54,2.01s-.54,1.53-.54,1.98c0,.06.02.11.06.14s.1.05.17.05c.15,0,.33-.07.54-.2s.44-.32.69-.55c.62-.61,1-.95,1.12-1.01s.29-.17.47-.33c.09.23.21.49.33.76s.25.56.37.86c-.11.09-.23.21-.36.33s-.3.28-.48.44c-.4.29-.92.65-1.56,1.06s-1.4.89-2.29,1.43c-.23.15-.5.28-.81.37-.49,0-.86-.07-1.11-.22s-.37-.38-.37-.71c0-.13.03-.28.08-.45s.13-.35.22-.55c.07-.15.15-.31.23-.47s.15-.32.21-.48c.26-.74.45-1.42.59-2.06s.2-1.2.2-1.71c0-.62-.1-1.1-.29-1.42s-.48-.52-.87-.56c-.26.14-.54.34-.84.6s-.62.58-.93.97c-.34.42-.64.77-.91,1.04s-.49.45-.67.54c-.11.18-.28.38-.51.6s-.54.46-.93.72l-.11.21c-.05.09-.12.2-.23.32-.09-.27-.2-.54-.32-.8s-.25-.54-.39-.82Z"/><path d="M134.68,35.35l.07-.14c.07-.09.16-.21.27-.35s.24-.3.4-.49c.83-.77,1.64-1.7,2.43-2.77s1.57-2.31,2.35-3.7c.09-.13.2-.3.32-.51s.25-.47.39-.79c0-.07-.02-.12-.05-.16s-.09-.05-.18-.05c-.07,0-.18.02-.34.06s-.28.06-.36.06h-2.2c-.09,0-.25,0-.47-.02s-.37-.02-.47-.02c-.12-.06-.23-.11-.33-.15s-.2-.08-.29-.13c-.14-.05-.25-.11-.33-.18s-.11-.17-.11-.27c0-.75.08-1.32.24-1.72s.4-.6.73-.6.64.01.92.04.54.07.77.11c.18-.04.34-.07.49-.11.32,0,.59.01.81.04.22.02.39.05.51.09.15-.04.3-.07.45-.1l.48-.1.58.18c.41-.05.85-.62,1.31-1.72.46-1.1.96-1.65,1.49-1.65.28,0,.5.09.65.26s.23.43.23.77c0,.27-.08.62-.24,1.06s-.25.77-.27.99c.02.05.05.1.09.15s.1.11.18.18c.07.05.12.13.15.24.03.11.04.25.04.41,0,.7-.03,1.25-.1,1.63s-.17.58-.31.59l-1.19.25c-.02.12-.05.26-.09.43s-.08.37-.14.59c-.2.59-.42,1.33-.67,2.23-.25.9-.52,1.97-.83,3.2-.19.98-.33,1.78-.43,2.39s-.15,1.02-.15,1.23c0,.19.03.33.09.42s.15.14.26.14c.07,0,.33-.17.76-.51s1.05-.84,1.84-1.51l.69,1.62c-.12.13-.28.28-.49.46s-.46.36-.76.56c-.12.13-.26.27-.44.43s-.37.34-.58.55c-.21.23-.42.47-.62.7s-.41.46-.62.69c-.28.3-.56.52-.83.66s-.52.2-.76.2c-.52,0-.9-.15-1.15-.46s-.38-.77-.38-1.39c0-.68.02-1.27.07-1.77.05-.5.12-.9.23-1.2.05-.09.08-.18.11-.25,0-.12.02-.28.05-.47s.08-.43.12-.7c.07-.46.15-.91.23-1.37.13-.28.26-.58.4-.9,0-.06-.05-.11-.14-.16l-.18.11c-.18.28-.4.58-.69.89s-.62.64-1,.98c-.6.57-1.21,1.15-1.83,1.74-.04.06-.1.15-.19.26s-.2.26-.32.44c-.06-.14-.13-.32-.22-.54s-.18-.47-.27-.75c-.02-.07-.05-.13-.09-.19s-.08-.11-.12-.14Z"/><path d="M144.42,35.35c.26-.22.46-.4.6-.53s.25-.24.33-.33c.19-.18.34-.35.46-.51s.18-.31.19-.44c.11-.4.23-.9.37-1.49s.32-1.29.54-2.07c.11-.23.22-.53.34-.89s.25-.76.4-1.2c.14-.59.32-1.12.53-1.6s.45-.91.7-1.3c.08-.11.16-.24.25-.4s.16-.34.25-.55c.08-.19.2-.41.34-.66s.31-.55.5-.89c.48-.7.9-1.31,1.27-1.81s.66-.91.9-1.21c.42-.5.85-.98,1.27-1.42s.86-.85,1.29-1.22c.4-.34.74-.59,1.04-.75s.53-.24.7-.24c.16.14.28.27.35.39.08,0,.16-.01.25-.04.3,0,.53.12.67.37s.21.61.21,1.09c0,.11-.02.24-.05.41s-.08.38-.14.62c-.08.08-.14.19-.18.32s-.06.26-.09.39c-.01.16-.03.3-.05.42s-.05.22-.09.32c-.15.28-.32.62-.49,1.03s-.36.88-.56,1.42c-.12.2-.26.46-.44.79s-.39.69-.63,1.09c-.12.22-.27.5-.45.83s-.41.72-.69,1.15c-.07.16-.19.34-.36.54s-.37.42-.61.68c-.07.19-.27.51-.59.97s-.77,1.05-1.34,1.78c-.28.36-.64.81-1.09,1.35s-.96,1.18-1.55,1.92c-.22.88-.39,1.66-.5,2.35s-.17,1.28-.17,1.78c0,.2.01.35.04.45s.08.15.17.15c.06-.08.14-.18.25-.28s.23-.23.34-.37c.22-.2.48-.57.78-1.11s.64-1.24,1.03-2.09c.34-.77.64-1.37.91-1.78s.49-.67.67-.75l.62-.26c.12-.05.22-.09.32-.12s.17-.05.23-.05c.15,0,.29.09.42.28s.23.45.32.77c.15.6.28,1.06.37,1.38s.15.51.16.57c.15.35.34.61.55.77s.48.25.78.25c.36-.06.79-.14,1.28-.25.09.23.2.49.33.76s.25.56.38.86c-.28.19-.57.37-.85.54s-.57.35-.85.53c-.19.11-.46.18-.81.24s-.76.08-1.23.08c-.71,0-1.27-.34-1.66-1.01-.39-.67-.63-1-.71-.99h-.11c-.19.23-.38.47-.59.72s-.41.5-.61.77c-.13.27-.31.58-.54.93s-.52.74-.84,1.16c-.39.47-.73.82-1.02,1.05s-.54.35-.76.35c-.45,0-.79-.05-1.05-.15s-.4-.25-.45-.45c-.14-.66-.25-1.23-.33-1.71s-.11-.9-.11-1.24c0-.11,0-.2.02-.28s.02-.16.04-.23c.04-.15.08-.32.12-.49,0-.06-.01-.1-.04-.13s-.08-.04-.15-.04c-.04.05-.08.1-.14.16s-.14.12-.25.19c-.05-.15-.13-.36-.25-.63s-.27-.6-.46-.98ZM155.84,19.1c-.13,0-.39.23-.77.69s-.88,1.15-1.48,2.05c-.34.5-.67,1-1,1.5s-.65.99-.97,1.47c-.14.14-.24.28-.31.42s-.1.29-.1.44c-.23.66-.46,1.27-.69,1.85-.21.62-.38,1.1-.52,1.44s-.21.54-.24.6l.09.09c.23-.21.43-.43.6-.67.23-.27.52-.62.85-1.05s.71-.93,1.13-1.5c.42-.54.86-1.22,1.3-2.05s.93-1.78,1.44-2.86c.29-.59.51-1.05.66-1.41s.22-.6.22-.74c0-.08-.01-.15-.04-.2s-.09-.08-.18-.08Z"/><path d="M157.88,34.57l1.6-1.05c.06-.06.13-.14.21-.24s.18-.24.28-.43c.08-.15.19-.28.33-.39s.29-.2.47-.28c.09-.12.23-.26.4-.44s.4-.38.67-.62c.13-.07.29-.17.49-.31s.42-.31.65-.54c1.07-1.01,2-1.76,2.8-2.27s1.48-.76,2.03-.76c.3,0,.53.06.68.19s.22.31.22.54c0,.25-.04.46-.13.65s-.23.35-.41.47c-.29.21-.61.45-.95.7-.19.25-.42.51-.69.78s-.59.55-.95.82c-.12.15-.22.29-.3.4-.06.06-.17.16-.33.32s-.38.33-.65.53c-.12.26-.37.59-.76,1s-.92.9-1.57,1.48c-.08.08-.23.27-.44.56s-.49.68-.83,1.16l.12.16c.26-.08.53-.22.81-.42s.59-.46.93-.79c.4-.36.72-.66.98-.89s.43-.38.54-.45l.25-.14c.08-.05.18-.11.28-.18.54-.64,1.04-1.12,1.51-1.43s.9-.47,1.3-.47c.25,0,.43.1.56.29s.21.48.23.87c-.02.59-.04,1.15-.04,1.69-.01.38.09.71.31,1.01s.5.45.85.45c.11,0,.21-.03.31-.09s.2-.13.31-.23c.08-.11.16-.21.24-.3s.16-.19.24-.28c.05-.02.11-.06.2-.12s.17-.13.25-.21c.16.35.3.66.41.92s.2.5.25.69c-.27.25-.54.5-.8.76s-.54.51-.83.75c-.35.27-.69.47-1.02.61s-.66.2-.98.2c-.76,0-1.35-.22-1.76-.65s-.65-1.09-.72-1.97c0-.11-.01-.21-.04-.33s-.09-.23-.18-.34c-.06.06-.12.12-.19.18s-.15.15-.25.25l-.57.44c-.23.18-.5.39-.8.63-.41.42-.76.77-1.04,1.04s-.48.46-.6.58c-.23.2-.51.4-.82.6s-.66.4-1.05.62c-.25.13-.46.23-.63.31s-.3.11-.39.11c-.56,0-.98-.14-1.25-.41s-.4-.7-.4-1.27c0-.32.07-.62.2-.91.13-.29.34-.56.61-.83.02-.15.04-.28.04-.37,0-.06-.01-.12-.04-.18s-.07-.14-.11-.22l-.24-.55c-.09-.21-.18-.42-.29-.66.05-.05.11-.14.2-.27s.19-.3.31-.5Z"/><path d="M170.84,35.35c.07-.08.15-.19.25-.33.09-.13.2-.28.32-.45.52-.64,1.02-1.22,1.5-1.73.49-.51.95-.96,1.38-1.36.22-.21.49-.48.81-.82.32-.33.69-.72,1.11-1.15.42-.16.89-.35,1.39-.56.32,0,.55.1.7.31s.23.5.23.89c0,.33-.03.68-.08,1.06s-.13.77-.22,1.17c-.11.32-.19.62-.26.91,0,.08.02.14.05.18s.09.06.18.06c.18-.08.52-.38,1.02-.88s1.17-1.21,1.99-2.11c.7-.77,1.32-1.35,1.85-1.73s.95-.57,1.27-.57c.34,0,.59.13.75.38s.24.62.24,1.12c0,.71-.05,1.4-.16,2.07s-.29,1.3-.54,1.91c-.05.12-.08.22-.09.3s-.02.16-.02.23c0,.08.07.16.21.23.09-.08.2-.2.33-.35s.27-.35.43-.58c.27-.22.54-.45.81-.67.27-.22.56-.45.88-.69.33-.26.66-.45,1-.59.34-.13.67-.2,1-.2.06,0,.12.02.17.05.06.04.12.08.18.12.27.23.49.45.67.64s.3.36.37.5c.46.94.86,1.64,1.22,2.1.36.46.67.69.94.69.06,0,.12-.01.18-.04s.12-.07.18-.11c.27.57.5,1.11.68,1.62-.42.33-.8.58-1.12.75-.33.17-.62.25-.86.25-.81,0-1.64-.52-2.5-1.57-.86-1.05-1.52-1.57-1.98-1.57-.61,0-1.62.9-3.04,2.7-1.42,1.8-2.3,2.7-2.65,2.7-.18,0-.41-.02-.7-.05-.09-.04-.16-.11-.21-.22s-.07-.24-.07-.4c0-.18.04-.41.11-.69s.16-.62.28-1.01c.15-.49.28-.88.37-1.18s.15-.5.16-.62c.04-.15.08-.45.15-.9s.15-1.04.25-1.78c0-.13-.04-.23-.11-.3s-.15-.11-.25-.11c-.08,0-.17.03-.27.08s-.21.14-.34.25c-.14.15-.3.3-.47.46s-.44.37-.82.65c-.41.47-.83.95-1.26,1.43s-.86.98-1.31,1.47c-.7.82-1.26,1.43-1.68,1.82s-.68.59-.8.59c-.35,0-.62-.04-.8-.12-.18-.08-.27-.21-.27-.37,0-.39.21-1.19.62-2.42.42-1.22.63-2.09.63-2.59,0-.08-.03-.15-.08-.2s-.12-.08-.2-.08c-.14,0-.31.08-.5.24-.19.16-.41.41-.66.75-.17.19-.36.4-.6.65s-.52.53-.86.86c-.04.09-.08.18-.14.27-.06.09-.12.17-.19.25-.05-.18-.13-.39-.25-.65s-.27-.58-.46-.97Z"/><path d="M69.04,61.84c.16.04.3.08.41.13.2-.04.4-.07.61-.11h1.63c.16,0,.27.04.34.12s.11.21.11.37c0,.23-.05.41-.15.53s-.24.18-.42.18c-.06,0-.15,0-.27-.03s-.21-.03-.27-.03h-.5c-.21.04-.42.08-.63.11-.51-.08-.79-.12-.85-.12-.08,0-.18.01-.3.03-.13.02-.23.03-.3.03-.11,0-.19-.02-.25-.07-.06-.04-.1-.11-.1-.19,0-.04.03-.09.09-.15s.14-.15.25-.25c.02-.05.05-.11.09-.18.04-.07.08-.16.14-.26.04,0,.09-.02.15-.04.06-.02.14-.04.22-.07Z"/><path d="M87.7,53.54c.24-.07.5-.12.79-.16s.6-.05.94-.05c.06,0,.16.01.29.03s.23.03.3.03c.11.02.2.04.25.05.06.02.15.04.26.06l.25-.07c.05,0,.11.03.17.07s.14.08.22.13c.05-.03.11-.06.2-.11.09,0,.16.03.22.1s.09.16.11.29v.28c0,.09,0,.19-.02.29,0,.05,0,.12,0,.22s.02.18.02.23c0,.06-.01.11-.04.14s-.07.04-.11.04c-.22,0-.44-.02-.66-.06s-.43-.1-.65-.17c-.19.04-.35.06-.49.08-.11.01-.19.03-.25.05s-.08.05-.08.09c.02.04.06.08.1.13s.09.09.15.13c.04.03.09.09.14.19.05.1.11.23.17.39.02.06.04.13.05.18s.01.11.01.17c0,.12-.01.28-.04.46-.02.18-.05.33-.08.45-.05.23-.09.42-.12.57-.03.15-.05.26-.07.34-.01.06-.02.13-.03.21s-.01.18-.02.28c0,.09-.03.2-.07.33-.04.13-.08.28-.12.45,0,.08,0,.16-.03.26s-.04.21-.07.34c-.02.08-.05.16-.08.26-.04.1-.07.21-.11.34.01.09.02.18.03.27-.02.16-.05.33-.07.51-.04.25-.07.51-.11.76s-.07.51-.1.75c-.04.07-.07.15-.11.24,0,.04,0,.1.02.19s.02.15.02.21c0,.06-.01.16-.04.29s-.04.22-.04.28c0,.11,0,.28,0,.52s0,.41,0,.53c.03.1.06.2.08.29-.02.08-.04.15-.06.2s-.05.09-.08.12c-.11.06-.2.12-.29.16-.06.06-.11.11-.15.14s-.07.05-.1.05c-.13,0-.22-.02-.27-.05s-.08-.08-.08-.14c.01-.19.03-.38.06-.56-.01-.02-.02-.06-.04-.11s-.04-.11-.07-.18c-.03-.46-.07-.93-.11-1.41.02-.35.03-.69.03-1.05,0-.16,0-.37.02-.62s.04-.54.08-.87.07-.62.09-.86.03-.45.03-.61c0-.07,0-.16.02-.27s.03-.24.05-.4c.02-.13.04-.26.05-.37.02-.11.03-.21.03-.29,0-.05,0-.1,0-.15s-.01-.1-.02-.14c.06-.15.1-.26.13-.36s.04-.15.04-.18c-.02-.08-.05-.15-.08-.23.04-.08.07-.23.11-.44.04-.21.08-.49.13-.84v-.25c0-.1,0-.22,0-.36l-.05-.16s-.07-.03-.13-.04-.14-.03-.23-.04l-.11.08c-.08.02-.15.04-.23.05s-.16.04-.25.06c-.61.17-1.21.34-1.81.5-.05,0-.08-.02-.11-.06s-.04-.09-.04-.15c0-.04.01-.1.04-.18s.08-.2.14-.34c.01-.21.03-.38.04-.51s.04-.24.06-.31c.05-.13.12-.24.22-.33s.21-.16.35-.2c.27-.09.52-.15.76-.18s.45-.03.65,0Z"/><path d="M90.89,63.35c.13-.11.23-.2.3-.26s.13-.12.17-.17c.09-.09.17-.17.23-.25s.09-.16.1-.22c.05-.2.11-.45.18-.75s.16-.64.27-1.04c.05-.12.11-.26.17-.44s.13-.38.2-.6c.07-.29.16-.56.26-.8s.22-.46.35-.65c.04-.05.08-.12.12-.2.04-.08.08-.17.12-.28.04-.09.1-.2.17-.33.07-.12.16-.27.25-.44.24-.35.45-.65.63-.91s.33-.45.45-.61c.21-.25.42-.49.64-.71.21-.22.43-.42.65-.61.2-.17.37-.29.52-.37.15-.08.26-.12.35-.12.08.07.14.13.18.19.04,0,.08,0,.12-.02.15,0,.26.06.33.18s.11.3.11.54c0,.05,0,.12-.03.21-.02.09-.04.19-.07.31-.04.04-.07.09-.09.16s-.03.13-.04.19c0,.08-.02.15-.03.21s-.03.11-.04.16c-.08.14-.16.31-.25.51-.09.2-.18.44-.28.71-.06.1-.13.23-.22.4-.09.16-.19.35-.32.54-.06.11-.13.25-.22.42-.09.17-.21.36-.35.58-.04.08-.1.17-.18.27-.08.1-.19.21-.3.34-.04.09-.13.25-.29.48s-.39.52-.67.89c-.14.18-.32.41-.54.68s-.48.59-.77.96c-.11.44-.19.83-.25,1.17-.06.34-.08.64-.08.89,0,.1,0,.17.02.22.01.05.04.08.08.08.03-.04.07-.09.13-.14s.11-.11.17-.18c.11-.1.24-.28.39-.55s.32-.62.51-1.05c.17-.39.32-.68.46-.89.13-.21.25-.33.33-.37l.31-.13c.06-.02.11-.04.16-.06s.08-.03.11-.03c.08,0,.15.05.21.14s.12.22.16.39c.08.3.14.53.18.69s.07.26.08.29c.08.18.17.3.28.39s.24.12.39.12c.18-.03.39-.07.64-.12.05.12.1.24.16.38.06.13.12.28.19.43-.14.09-.28.18-.43.27-.14.09-.29.18-.43.26-.09.05-.23.09-.4.12-.18.03-.38.04-.62.04-.36,0-.63-.17-.83-.5s-.31-.5-.36-.5h-.05c-.09.12-.19.24-.29.36s-.2.25-.3.39c-.06.13-.16.29-.27.47s-.26.37-.42.58c-.19.23-.36.41-.51.53s-.27.18-.38.18c-.22,0-.4-.03-.52-.08s-.2-.12-.22-.22c-.07-.33-.12-.61-.16-.86s-.06-.45-.06-.62c0-.05,0-.1,0-.14s.01-.08.02-.11c.02-.08.04-.16.06-.25,0-.03,0-.05-.02-.07-.01-.01-.04-.02-.07-.02-.02.02-.04.05-.07.08s-.07.06-.12.1c-.02-.08-.06-.18-.12-.32s-.13-.3-.23-.49ZM96.61,55.23c-.06,0-.19.12-.39.35s-.44.57-.74,1.02c-.17.25-.34.5-.5.75s-.33.49-.48.73c-.07.07-.12.14-.15.21s-.05.14-.05.22c-.12.33-.23.64-.34.92-.11.31-.19.55-.26.72s-.11.27-.12.3l.04.04c.12-.11.22-.22.3-.33.12-.13.26-.31.43-.52.17-.21.36-.46.57-.75.21-.27.43-.61.65-1.02.22-.41.46-.89.72-1.43.15-.29.26-.53.33-.7s.11-.3.11-.37c0-.04,0-.07-.02-.1-.01-.03-.05-.04-.09-.04Z"/><path d="M97.35,63.35c.07-.12.16-.25.27-.37s.25-.26.42-.39c.02-.12.04-.23.05-.35.02-.12.03-.23.04-.35.02-.08.04-.18.08-.29s.08-.23.13-.36c.05-.13.12-.29.22-.48.09-.19.21-.41.36-.65.12-.13.25-.28.39-.44.13-.16.27-.32.4-.49.06-.05.13-.1.21-.15s.15-.1.23-.16c.07-.02.15-.04.24-.06s.18-.03.29-.03c.15,0,.26.01.36.04s.17.08.22.15c.04.05.08.12.12.21.04.09.07.21.11.34.02.12.04.25.06.39,0-.04-.01-.02-.03.04-.02.06-.05.17-.09.31l-.08.28c-.08.28-.27.61-.55.98s-.67.79-1.16,1.27c-.04.04-.08.09-.11.15-.03.06-.04.13-.04.2,0,.12.02.23.07.33.04.09.11.16.19.21.05.04.12.07.22.11s.22.07.37.1c.23-.02.44-.06.62-.11s.35-.13.5-.21c.03-.02.08-.04.14-.08.06-.03.13-.07.19-.13.08.17.14.32.2.46s.11.25.14.35c-.33.33-.64.58-.91.74-.27.17-.52.25-.75.25-.09.06-.2.1-.32.13-.12.03-.26.04-.43.04-.22,0-.41-.03-.58-.1-.17-.06-.31-.16-.42-.28-.06-.06-.12-.15-.18-.26-.06-.12-.12-.25-.18-.41-.05-.13-.1-.22-.15-.29-.05-.06-.1-.09-.16-.09-.05,0-.1.02-.16.07-.06.04-.12.11-.19.2-.02-.09-.06-.2-.12-.33s-.13-.29-.23-.48ZM100.16,60.49c-.13,0-.3.17-.52.5-.22.34-.33.58-.33.74,0,.04,0,.06.02.08s.05.02.09.02c.06,0,.12-.03.16-.1.04-.07.08-.13.11-.19.06-.06.13-.12.19-.19.06-.07.12-.13.18-.2.07-.08.12-.16.16-.25s.05-.16.05-.25c0-.05-.01-.09-.03-.13-.02-.03-.05-.05-.09-.05Z"/><path d="M108.19,67.17h-.2c-.14,0-.26-.04-.36-.12-.1-.08-.16-.21-.2-.39-.01-.05-.02-.15-.03-.29s0-.34,0-.58c0-.1,0-.25-.03-.47-.02-.21-.03-.37-.03-.47,0-.04,0-.1.02-.18.01-.09.02-.21.03-.36.01-.14.02-.31.04-.51-.01-.19-.03-.37-.06-.55.04-.31.09-.63.14-.95,0-.05,0-.13-.01-.25s-.02-.21-.02-.25,0-.1.03-.18c.02-.08.03-.14.03-.19,0-.06-.01-.11-.03-.14-.02-.04-.05-.05-.09-.05-.03.01-.06.02-.1.04-.04.01-.08.03-.12.05-.04,0-.08.02-.13.04s-.12.04-.19.06l-.08-.05-.03-.09c.05-.09.11-.18.16-.27.05-.09.11-.18.15-.26.05-.08.12-.14.19-.2s.16-.12.24-.18c.06-.04.12-.13.16-.28.04-.15.08-.38.1-.67.02-.33.05-.61.08-.82s.06-.35.09-.43c.02-.07.05-.16.09-.27,0-.04,0-.09-.03-.17s-.03-.13-.03-.16c.04-.27.08-.53.12-.78.07-.36.22-.73.44-1.09s.52-.74.9-1.14c.39-.38.95-.66,1.68-.83.08.02.16.04.22.05l.29-.11s.07,0,.11.03c.04.02.1.04.17.08.13-.04.25-.07.35-.09s.18-.03.24-.03c.36,0,.63.05.81.15.18.1.27.24.27.44,0,.11,0,.24-.02.38-.02.14-.04.29-.08.46-.04.22-.09.38-.14.49-.05.11-.11.17-.18.18-.15-.07-.31-.14-.47-.2-.16-.06-.32-.13-.49-.2l-.32.12c-.1-.01-.21-.03-.33-.04-.1,0-.21.01-.34.03-.13.02-.26.05-.39.08-.37.09-.58.21-.64.37s-.16.36-.3.63c-.05.06-.12.3-.22.71-.1.42-.24,1.01-.41,1.78,0,.04-.03.1-.07.18-.04.09-.06.16-.06.22,0,.08.01.14.04.19.03.04.07.07.11.07.09-.04.21-.09.36-.14.15-.05.33-.1.54-.16.19-.02.38-.05.57-.09.19-.04.39-.09.59-.15h.53c.2-.04.4-.07.61-.11.34,0,.59.05.76.15.17.1.25.23.25.41,0,.04,0,.12-.01.27,0,.14-.02.34-.04.58-.08.13-.16.27-.24.41-.05,0-.19-.02-.4-.07-.22-.04-.52-.11-.92-.2-.14.04-.29.06-.46.08-.16.02-.33.03-.51.03-.11,0-.27.02-.48.05-.21.04-.37.06-.48.06-.08.06-.15.1-.23.13-.08.03-.16.04-.23.04-.04,0-.13,0-.27-.03-.08,0-.15.07-.22.21-.07.14-.13.35-.18.64l-.09.38.06.27-.17,1.05s0,.09.01.14c0,.06.01.11.01.17-.08.47-.13.93-.16,1.38-.03.45-.05.9-.05,1.34,0,.09-.02.19-.06.3s-.11.21-.19.32Z"/><path d="M113.83,63.35s.08-.09.13-.16c.04-.07.1-.14.15-.22l.68-.47c.08-.1.21-.23.38-.38s.38-.34.63-.57c.03-.06.08-.14.14-.22s.15-.17.24-.25c.08-.08.16-.15.25-.22.08-.07.16-.13.23-.2.09-.09.17-.18.25-.26.08-.09.16-.17.24-.25.09-.08.19-.15.29-.19s.21-.07.33-.07c.13,0,.23.02.29.05.07.03.1.08.11.14-.06.13-.12.27-.18.4l.05.08c.26-.1.46-.17.61-.22s.24-.07.28-.07c.43,0,.75.13.96.39.21.26.32.66.32,1.18,0,.1-.01.22-.04.35s-.06.28-.11.44c-.06.18-.12.32-.19.44-.07.12-.13.2-.19.25.02.08.05.13.08.16.03.03.07.05.11.05s.09-.01.14-.04.11-.07.18-.13c.06.13.12.26.17.4s.11.27.17.41c-.11.09-.21.18-.31.27s-.21.17-.32.25c-.13.11-.26.19-.38.24-.12.05-.24.07-.36.07-.13,0-.25-.03-.33-.1s-.16-.16-.21-.27c-.15.19-.32.37-.53.53-.21.16-.44.29-.69.4-.15.07-.28.12-.4.16-.12.04-.23.06-.33.06-.03,0-.09.01-.17.04-.09.02-.15.04-.21.04-.33,0-.64-.14-.91-.42s-.4-.59-.4-.94c0-.14.03-.33.1-.56.06-.23.1-.37.1-.41s-.01-.07-.04-.1c-.03-.03-.06-.04-.11-.04-.03,0-.1.04-.21.13s-.27.21-.47.38c-.02.02-.04.06-.06.11s-.06.1-.11.16c-.05-.13-.1-.27-.16-.41s-.12-.27-.19-.4ZM118.06,61.74s-.07.04-.13.09-.11.12-.16.21c-.08.13-.18.28-.28.44-.06.07-.13.12-.21.16s-.16.07-.25.08c-.06,0-.12.06-.18.17-.06.11-.13.27-.19.47-.06.18-.11.34-.14.47s-.04.24-.04.33c0,.16.04.29.12.37s.21.12.38.12c.27,0,.52-.07.74-.22.22-.15.44-.37.64-.67.09-.11.18-.22.26-.32.05-.04.08-.09.11-.17.03-.08.06-.18.09-.29l.16-.5c-.05-.18-.1-.31-.15-.42-.05-.1-.09-.17-.14-.19-.03-.02-.09-.04-.19-.06-.1-.02-.24-.04-.43-.07Z"/><path d="M120.19,63.35s.04-.04.06-.06c.02-.02.02-.05.02-.09.1-.08.21-.19.34-.34.12-.14.27-.31.43-.5.13-.18.26-.35.4-.53.14-.18.29-.35.44-.53.13-.18.26-.36.38-.55.12-.19.26-.38.4-.56.23-.11.42-.19.54-.24s.22-.07.26-.07c.09,0,.16.03.2.08s.07.14.07.24c0,.04,0,.08-.03.15s-.04.13-.06.21c-.04.12-.09.24-.14.36-.05.21-.1.41-.17.62s-.13.41-.18.61c-.06.25-.1.48-.14.69s-.05.4-.05.58c0,.33.02.57.05.73s.08.23.14.21c.06-.04.13-.08.22-.13s.19-.11.31-.17c.11-.11.22-.25.36-.41.13-.16.29-.36.48-.58.11-.16.21-.33.33-.48.04-.05.09-.1.14-.17s.11-.13.15-.19c.11-.28.24-.49.37-.63s.29-.21.46-.21c.15,0,.27.02.36.06.09.04.15.1.19.17.02.04.03.11.04.21s.02.23.02.4c0,.06.01.16.04.28.03.12.04.21.04.27,0,.22.04.38.11.49s.19.16.35.16c.05,0,.1,0,.17-.03s.13-.04.19-.06l.35.81c-.35.21-.64.37-.87.48-.23.11-.39.16-.51.16-.29,0-.53-.08-.72-.23s-.33-.38-.41-.68c-.01-.07-.04-.14-.08-.21s-.09-.14-.14-.21c-.05.06-.11.13-.18.21-.07.08-.14.16-.22.25-.16.19-.32.38-.47.57-.16.19-.32.37-.48.55-.21.24-.41.42-.62.52-.21.11-.4.16-.58.16-.27,0-.49-.08-.65-.24s-.27-.4-.32-.72c-.05-.3-.09-.54-.11-.71s-.02-.27,0-.31c-.01-.17-.03-.3-.05-.39s-.05-.13-.09-.13l-.05.03-.5.52s-.05.09-.09.15c-.04.06-.1.14-.17.22-.02-.09-.06-.2-.12-.33s-.13-.29-.23-.48Z"/><path d="M127.5,63.35s.05-.09.09-.14c.04-.05.08-.11.14-.18.06-.05.13-.11.23-.2s.2-.19.32-.31c.11-.12.23-.26.39-.44.15-.17.34-.38.55-.63.09-.1.21-.23.35-.38s.31-.34.5-.56c.16-.19.34-.34.53-.43s.39-.14.6-.14.37.07.47.2c.1.13.15.32.15.58,0,.13-.05.39-.15.77s-.25.88-.47,1.51c-.05.12-.1.23-.15.33-.04.08-.06.14-.07.2s-.02.1-.02.13c0,.04.02.08.06.13.03-.02.06-.04.08-.07.03-.03.06-.06.09-.11.05-.09.12-.18.21-.28.1-.1.21-.2.35-.32.05-.1.12-.2.21-.29.08-.1.18-.19.29-.27.02-.02.05-.06.09-.11s.08-.11.14-.17c.08-.08.17-.16.27-.24s.23-.17.37-.25c.16-.08.3-.15.43-.19.12-.05.24-.07.33-.07.18,0,.34.04.48.13s.26.23.36.41c.12.36.23.7.33,1.01.06.18.14.32.22.4.08.09.17.13.27.13.08,0,.14-.01.21-.04.06-.03.12-.07.17-.13l.35.81c-.1.08-.2.17-.31.25s-.21.17-.31.25c-.13.12-.26.21-.38.26s-.23.07-.35.07c-.13,0-.26-.03-.39-.09s-.23-.15-.32-.26c-.05-.05-.11-.13-.18-.26-.07-.12-.15-.28-.25-.47-.08-.08-.16-.18-.26-.3-.1-.12-.21-.27-.34-.44l-.08-.03c-.11.04-.22.09-.33.16s-.22.16-.35.27c-.26.23-.45.38-.57.44-.12.06-.2.13-.24.2-.08.14-.22.32-.42.54s-.45.49-.75.79c-.08.08-.15.15-.23.22-.08.07-.15.15-.23.22-.08.06-.16.11-.26.14-.1.03-.2.04-.32.04-.24,0-.36-.08-.38-.24-.02-.16-.04-.32-.06-.49.09-.25.19-.55.3-.92s.24-.8.38-1.29c0-.03,0-.07.03-.12.02-.05.04-.12.07-.2.03-.08.05-.14.06-.2s.02-.1.02-.15-.01-.07-.04-.1-.08-.04-.14-.04c-.06,0-.14.04-.23.11-.1.07-.21.18-.35.33-.16.18-.3.31-.4.41s-.17.16-.2.18c-.06.04-.13.1-.21.18-.08.08-.17.16-.27.25l-.05.11s-.06.1-.11.16c-.02-.09-.06-.2-.12-.33s-.13-.29-.23-.48Z"/><path d="M135.9,63.35l.05-.06.03-.09c.11-.13.2-.23.27-.3.08-.07.13-.13.18-.17.03-.03.09-.07.19-.11s.23-.11.4-.18l.11-.07c.04-.06.11-.16.22-.28s.23-.26.38-.42c.03-.04.07-.07.13-.11s.12-.09.18-.16c.14-.13.28-.27.42-.42s.27-.29.4-.43c.05-.05.16-.15.33-.29.16-.14.39-.33.67-.58.04-.03.11-.07.22-.13.11-.05.24-.12.41-.2.08-.04.13-.09.17-.17.04-.08.06-.18.06-.3.05-.08.09-.17.14-.28.04-.11.09-.24.13-.38.06-.18.1-.33.14-.44.03-.11.06-.19.08-.23.1-.26.23-.57.4-.93.17-.35.37-.76.61-1.22.12-.24.25-.51.41-.8.1-.15.21-.26.33-.33s.25-.11.39-.11c.11,0,.18.04.23.12.05.08.07.2.07.36,0,.25-.02.49-.05.72s-.1.44-.19.64c-.02.04-.03.1-.04.18s-.02.18-.04.3c0,.08-.03.16-.07.24-.04.08-.09.15-.15.21,0,.04,0,.09-.02.15s-.02.12-.04.2l-.12.16s-.02.08-.02.13v.15s-.02.1-.06.21-.1.25-.18.43c-.09.2-.17.36-.22.47-.06.12-.09.19-.09.22-.02.03-.05.08-.09.14s-.08.14-.14.22l.03.19-.56,2.02c0,.22,0,.41,0,.57s.02.28.05.38c.03.1.08.22.15.36.07.14.15.3.26.46.06.11.14.19.23.24.09.05.18.08.28.08.11,0,.22-.03.34-.09.11-.06.23-.16.35-.29.07.15.14.3.2.43.06.13.11.26.15.38-.03.02-.09.08-.19.18-.1.1-.22.25-.38.44-.09.11-.21.19-.35.24s-.31.07-.5.07c-.44,0-.8-.11-1.07-.34s-.47-.57-.58-1.03l-.06-.25c-.02-.07-.04-.13-.05-.19-.04-.11-.11-.23-.21-.36-.04.06-.07.1-.1.13-.07.05-.15.11-.23.2s-.17.2-.26.33c-.02.06-.05.13-.1.22s-.11.19-.19.3c-.19.22-.38.44-.57.65-.19.22-.39.44-.58.65-.26.29-.51.51-.73.65-.22.14-.42.21-.58.21-.29,0-.51-.07-.65-.21-.14-.14-.21-.35-.21-.65,0-.13.05-.32.15-.57s.15-.42.15-.54l-.05-.14-.35-.81ZM140.32,60.83s-.01-.07-.04-.13c-.09.09-.2.19-.33.31s-.28.25-.46.39c-.04.09-.13.24-.28.44-.15.2-.35.45-.62.75-.08.09-.18.24-.31.45s-.29.48-.47.79c-.06.12-.13.27-.2.45,0,.04.02.07.07.11.18-.05.39-.21.65-.46s.56-.61.91-1.06c.36-.48.63-.89.81-1.23.18-.34.26-.61.26-.81Z"/><path d="M143.25,63.35c.07-.12.16-.25.27-.37s.25-.26.42-.39c.02-.12.04-.23.05-.35.02-.12.03-.23.04-.35.02-.08.04-.18.08-.29s.08-.23.13-.36c.05-.13.12-.29.22-.48.09-.19.21-.41.36-.65.12-.13.25-.28.39-.44.13-.16.27-.32.4-.49.06-.05.13-.1.21-.15s.15-.1.23-.16c.07-.02.15-.04.24-.06s.18-.03.29-.03c.15,0,.26.01.36.04s.17.08.22.15c.04.05.08.12.12.21.04.09.07.21.11.34.02.12.04.25.06.39,0-.04-.01-.02-.03.04-.02.06-.05.17-.09.31l-.08.28c-.08.28-.27.61-.55.98s-.67.79-1.16,1.27c-.04.04-.08.09-.11.15-.03.06-.04.13-.04.2,0,.12.02.23.07.33.04.09.11.16.19.21.05.04.12.07.22.11s.22.07.37.1c.23-.02.44-.06.62-.11s.35-.13.5-.21c.03-.02.08-.04.14-.08.06-.03.13-.07.19-.13.08.17.14.32.2.46s.11.25.14.35c-.33.33-.64.58-.91.74-.27.17-.52.25-.75.25-.09.06-.2.1-.32.13-.12.03-.26.04-.43.04-.22,0-.41-.03-.58-.1-.17-.06-.31-.16-.42-.28-.06-.06-.12-.15-.18-.26-.06-.12-.12-.25-.18-.41-.05-.13-.1-.22-.15-.29-.05-.06-.1-.09-.16-.09-.05,0-.1.02-.16.07-.06.04-.12.11-.19.2-.02-.09-.06-.2-.12-.33s-.13-.29-.23-.48ZM146.06,60.49c-.13,0-.3.17-.52.5-.22.34-.33.58-.33.74,0,.04,0,.06.02.08s.05.02.09.02c.06,0,.12-.03.16-.1.04-.07.08-.13.11-.19.06-.06.13-.12.19-.19.06-.07.12-.13.18-.2.07-.08.12-.16.16-.25s.05-.16.05-.25c0-.05-.01-.09-.03-.13-.02-.03-.05-.05-.09-.05Z"/><path d="M147.67,63.35c.09-.12.19-.25.28-.39.43-.35.78-.69,1.05-1.02.27-.32.47-.63.59-.91l-.09-.42c.08-.15.26-.32.57-.52.3-.2.55-.3.73-.3.2,0,.37.06.5.18s.27.24.4.37c.06.04.11.07.14.1.23.18.41.42.53.73s.18.69.18,1.13c0,.23-.09.57-.27,1.01s-.27.77-.27.99c0,.03,0,.05.03.07.02.02.05.03.08.03.08,0,.17-.03.27-.1s.22-.16.34-.28c.31-.3.5-.47.56-.51.06-.03.14-.09.24-.16.05.12.1.24.17.38s.13.28.18.43c-.05.05-.11.1-.18.17-.07.06-.15.14-.24.22-.2.15-.46.32-.78.53-.32.21-.7.45-1.15.72-.12.08-.25.14-.4.18-.25,0-.43-.04-.55-.11-.12-.07-.18-.19-.18-.36,0-.06.01-.14.04-.22.03-.08.06-.18.11-.28.04-.08.07-.15.11-.23.04-.08.08-.16.11-.24.13-.37.23-.71.29-1.03s.1-.6.1-.85c0-.31-.05-.55-.14-.71-.1-.16-.24-.26-.44-.28-.13.07-.27.17-.42.3s-.31.29-.47.48c-.17.21-.32.38-.46.52s-.25.23-.33.27c-.05.09-.14.19-.25.3s-.27.23-.47.36l-.05.11s-.06.1-.11.16c-.05-.13-.1-.27-.16-.4-.06-.13-.12-.27-.19-.41Z"/><path d="M155.31,58.17c-.06,0-.12-.01-.15-.04s-.06-.06-.06-.11c0-.09.13-.5.38-1.23.25-.73.38-1.3.38-1.71,0-.05-.01-.13-.03-.25-.02-.12-.03-.21-.03-.27,0-.28.05-.49.15-.64s.25-.22.44-.22.36.04.49.11.24.17.33.31c.05.07.09.18.13.34.04.16.09.36.15.61-.01.06-.03.14-.06.21-.03.08-.07.17-.13.28s-.11.2-.15.28c-.04.08-.06.14-.07.2-.22.72-.44,1.26-.66,1.62s-.44.53-.68.52h-.43Z"/><path d="M157.27,63.35l.05-.06c.02-.08.07-.17.15-.26.08-.09.19-.19.34-.28.19-.12.34-.22.45-.3.11-.08.17-.13.2-.17.05-.06.09-.11.11-.15.06-.05.14-.11.24-.19s.2-.18.32-.3c.04-.03.08-.08.13-.14s.09-.14.14-.22c.08-.05.16-.12.26-.2.1-.08.21-.19.34-.32.15-.16.31-.33.5-.52.19-.19.39-.39.62-.59.08-.04.15-.06.22-.08.07-.02.13-.03.2-.03.26,0,.46.06.59.19.13.13.2.31.2.54,0,.06-.01.16-.03.29s-.04.3-.07.51c-.08.59-.14.95-.18,1.08s-.16.53-.37,1.21c-.05.11-.1.25-.15.41s-.11.36-.18.6c.01.02.04.05.09.07.04,0,.11-.04.22-.12.11-.08.25-.2.42-.36.21-.19.37-.33.48-.43s.19-.16.22-.18c.07.16.13.3.19.44.06.13.11.26.15.37-.08.05-.14.1-.21.16-.06.06-.12.12-.17.19-.12.08-.27.18-.43.28s-.34.22-.53.34c-.09.09-.21.2-.36.32-.15.13-.32.27-.51.43l-.17.04c-.08.11-.16.2-.23.25s-.14.1-.2.12c-.09.04-.19.07-.28.1s-.19.07-.3.1c-.06-.02-.11-.06-.14-.11s-.04-.13-.04-.23c-.09-.16-.16-.34-.21-.54s-.08-.43-.08-.69c0-.05,0-.1,0-.15s.01-.1.02-.14c-.04-.15-.06-.24-.06-.27,0-.18.07-.32.2-.43.13-.12.29-.17.46-.17.09,0,.15.05.19.14.04.09.08.14.12.14s.08-.08.13-.24c.04-.16.09-.4.13-.71.04-.27.07-.5.08-.7s.02-.35.02-.46c0-.08-.02-.13-.05-.17-.03-.04-.09-.06-.16-.06s-.32.18-.74.53-1,.88-1.74,1.57c-.02.04-.06.09-.1.15-.04.06-.1.13-.15.22-.02-.09-.06-.2-.12-.33s-.13-.29-.23-.48Z"/><path d="M176.18,64.16c-.18.13-.39.29-.65.47-.26.18-.57.37-.92.58-.32.18-.6.34-.84.47-.24.13-.45.23-.61.29-.24.11-.5.19-.76.24-.27.05-.54.07-.83.07-.09,0-.19-.01-.29-.04-.11-.03-.22-.06-.35-.09-.15-.04-.28-.08-.39-.11s-.19-.05-.26-.05l-.11-.11-.25-.04c-.11,0-.25-.06-.4-.17-.16-.11-.32-.25-.51-.44-.18-.18-.32-.34-.43-.5-.11-.16-.19-.3-.23-.43l-.24-.76c-.08-.26-.14-.47-.18-.62s-.06-.26-.05-.31l.1-.4c-.05-.13-.08-.25-.11-.33-.03-.09-.04-.16-.04-.2s.01-.19.04-.43.07-.57.12-1c.04-.08.08-.18.13-.3s.09-.25.13-.4l-.03-.19s0-.1.03-.16c.02-.06.05-.13.08-.21.13-.29.27-.58.4-.87s.27-.58.4-.85c.12-.21.27-.43.45-.65.18-.22.4-.45.64-.69.05-.06.12-.13.19-.23s.17-.2.27-.31c.1-.06.22-.15.36-.27s.32-.27.51-.46c.06-.02.13-.06.21-.1l.3-.15s.07-.05.11-.09c.04-.04.09-.08.15-.13.06-.06.3-.15.7-.26s.67-.18.79-.18c.27,0,.5.02.69.06.19.04.34.1.45.18l.28.05c.23.05.41.23.52.54s.17.74.17,1.32c0,.27,0,.49,0,.65s-.01.27-.03.33c-.04.18-.07.4-.12.66-.04.27-.1.58-.17.93,0,.09-.05.25-.12.46-.07.21-.17.48-.28.8-.12.35-.23.61-.32.79-.09.18-.16.28-.22.29-.23.06-.49.12-.75.19-.13,0-.22,0-.27-.03-.05-.02-.08-.05-.08-.1,0-.04.01-.11.03-.19s.03-.15.03-.18c-.02-.22-.04-.45-.05-.68,0-.08.02-.24.07-.48.05-.24.12-.55.21-.92.1-.41.19-.73.26-.97.08-.24.14-.38.18-.44.17-.16.29-.31.37-.45.08-.14.12-.27.12-.39,0-.16-.04-.31-.12-.43-.08-.12-.2-.22-.36-.28-.15-.04-.31-.07-.46-.1-.16-.03-.31-.07-.46-.12-.12.05-.23.08-.33.11-.1.02-.18.04-.25.06-.39.06-.77.25-1.13.54-.36.3-.7.71-1.03,1.24-.27.46-.49.92-.65,1.38-.16.46-.28.92-.33,1.38-.02.14-.05.32-.09.52s-.08.45-.15.73c.05.18.1.34.14.48l-.09.8s.03.09.08.18.13.22.25.4c.06.1.12.22.18.35s.09.29.12.46c.01.04.03.08.07.13s.07.08.11.11c.09.08.17.14.25.2.25.27.52.47.8.61.28.14.59.21.91.21.03,0,.14-.01.33-.04s.45-.08.79-.14c.06-.04.14-.08.23-.12.1-.04.21-.08.35-.13.12-.12.23-.2.35-.25.12-.05.23-.07.33-.07.03-.04.07-.09.11-.15.04-.06.1-.12.17-.19.18-.07.34-.16.48-.28.15-.12.29-.25.42-.4.23.51.35.78.35.81Z"/><path d="M175.82,63.35c.05-.06.11-.13.16-.21s.12-.18.21-.28l.58-.51s.04-.04.04-.07,0-.07,0-.12c0-.08-.01-.14-.03-.18,0-.13.03-.36.08-.68s.1-.51.14-.57l-.05-.17c.08-.39.18-.82.32-1.29.14-.47.29-.97.47-1.52.06-.09.12-.21.18-.36.06-.14.14-.31.22-.49.1-.3.23-.62.4-.96s.35-.68.55-1.03c.28-.46.52-.81.73-1.05s.41-.35.58-.35c.34,0,.57.07.7.2.12.13.19.38.19.74,0,.09-.02.24-.05.43-.03.2-.05.34-.05.44s-.03.24-.1.42-.1.35-.1.5c0,.05-.02.09-.04.14v.12c-.01.08-.05.18-.1.3s-.11.26-.18.42c-.04.15-.09.32-.16.51s-.14.4-.23.63c-.04.06-.08.13-.14.21-.06.09-.12.18-.18.29-.02.08-.05.16-.09.26s-.1.22-.17.35c-.04.07-.08.15-.14.23s-.13.19-.21.32c-.04.06-.07.13-.11.22s-.09.19-.14.3c-.06.1-.15.22-.25.37s-.23.32-.36.52c-.18.32-.37.63-.56.92,0,.57.11,1,.34,1.29.22.29.56.44,1.01.44.03,0,.12-.02.26-.06s.35-.11.61-.19c.08-.05.17-.11.27-.2.11-.08.23-.19.36-.3l.34.81c-.15.13-.3.27-.46.41s-.31.28-.47.41c-.18.15-.37.27-.55.35-.19.08-.37.12-.55.12-.09,0-.24,0-.43-.03s-.34-.03-.44-.03c-.33,0-.6-.13-.81-.4s-.36-.66-.45-1.19c-.01-.05-.03-.1-.05-.14-.02-.04-.06-.09-.11-.14-.08.08-.17.17-.27.27s-.23.23-.37.36l-.35-.81ZM180.01,56.45l-.06-.04c-.33.32-.58.62-.74.9-.17.28-.25.55-.25.82,0,.04-.02.11-.06.21-.04.1-.09.22-.17.37-.09.18-.19.38-.29.6-.11.33-.2.59-.25.8s-.09.35-.09.44l.05.07c.05,0,.12-.06.19-.16s.16-.25.26-.44c.05-.11.11-.23.2-.37s.19-.31.3-.5c.09-.13.24-.46.45-.99s.32-.87.33-1.02c0-.12.02-.23.05-.35.03-.12.05-.23.08-.34Z"/><path d="M180.78,63.35s.04-.04.06-.06c.02-.02.02-.05.02-.09.1-.08.21-.19.34-.34.12-.14.27-.31.43-.5.13-.18.26-.35.4-.53.14-.18.29-.35.44-.53.13-.18.26-.36.38-.55.12-.19.26-.38.4-.56.23-.11.42-.19.54-.24s.22-.07.26-.07c.09,0,.16.03.2.08s.07.14.07.24c0,.04,0,.08-.03.15s-.04.13-.06.21c-.04.12-.09.24-.14.36-.05.21-.1.41-.17.62s-.13.41-.18.61c-.06.25-.1.48-.14.69s-.05.4-.05.58c0,.33.02.57.05.73s.08.23.14.21c.06-.04.13-.08.22-.13s.19-.11.31-.17c.11-.11.22-.25.36-.41.13-.16.29-.36.48-.58.11-.16.21-.33.33-.48.04-.05.09-.1.14-.17s.11-.13.15-.19c.11-.28.24-.49.37-.63s.29-.21.46-.21c.15,0,.27.02.36.06.09.04.15.1.19.17.02.04.03.11.04.21s.02.23.02.4c0,.06.01.16.04.28.03.12.04.21.04.27,0,.22.04.38.11.49s.19.16.35.16c.05,0,.1,0,.17-.03s.13-.04.19-.06l.35.81c-.35.21-.64.37-.87.48-.23.11-.39.16-.51.16-.29,0-.53-.08-.72-.23s-.33-.38-.41-.68c-.01-.07-.04-.14-.08-.21s-.09-.14-.14-.21c-.05.06-.11.13-.18.21-.07.08-.14.16-.22.25-.16.19-.32.38-.47.57-.16.19-.32.37-.48.55-.21.24-.41.42-.62.52-.21.11-.4.16-.58.16-.27,0-.49-.08-.65-.24s-.27-.4-.32-.72c-.05-.3-.09-.54-.11-.71s-.02-.27,0-.31c-.01-.17-.03-.3-.05-.39s-.05-.13-.09-.13l-.05.03-.5.52s-.05.09-.09.15c-.04.06-.1.14-.17.22-.02-.09-.06-.2-.12-.33s-.13-.29-.23-.48Z"/><path d="M188.09,63.35c.07-.08.16-.18.25-.3s.23-.26.38-.42c.06-.16.11-.37.16-.61.05-.24.09-.53.13-.86.04-.33.09-.62.14-.87s.1-.45.14-.6c.26-.83.47-1.47.62-1.92.15-.45.23-.72.25-.8.19-.53.4-1.01.61-1.43.21-.42.43-.78.65-1.09.05-.06.11-.12.17-.19.06-.07.13-.14.2-.21.22-.1.42-.2.61-.29.11-.05.21-.08.32-.11.11-.03.21-.04.32-.04.16,0,.29.08.38.23s.13.39.13.7c0,.19-.03.41-.08.65-.05.24-.13.5-.22.78-.14.4-.25.72-.33.95-.08.24-.12.38-.14.44-.02.12-.08.28-.17.47s-.21.42-.35.69c-.18.35-.32.61-.43.8-.1.19-.16.3-.18.33-.04.04-.08.08-.13.13-.04.04-.09.09-.14.14v.2c-.03.07-.06.12-.09.15-.1.19-.23.43-.4.72-.17.29-.37.62-.62.98-.14.19-.25.36-.32.51s-.11.27-.11.38v.77c.03.15.06.3.1.45.04.15.07.29.11.44.03.19.08.33.17.43.08.1.18.15.28.15.23,0,.43-.06.58-.17.15-.12.27-.29.35-.52-.16-.06-.28-.14-.36-.22-.09-.08-.13-.17-.13-.27.03-.06.05-.12.08-.19.02-.07.04-.14.07-.22,0-.04.02-.08.03-.12s.03-.09.03-.16c.27-.49.52-.86.74-1.11.22-.25.42-.37.6-.37.04,0,.11,0,.2.02.09.02.16.02.21.02.04,0,.09,0,.17-.03s.13-.03.17-.03c.1,0,.17.03.21.1s.06.16.06.28c0,.25-.07.52-.22.82s-.22.46-.22.5c0,.04.02.07.07.11.04-.01.07-.03.11-.05s.08-.05.11-.09c.02.08.06.16.11.26.05.1.1.21.16.34.03.04.05.08.06.11s.02.06.02.09c-.25.25-.46.45-.65.58s-.35.21-.47.22c-.04,0-.09,0-.15,0-.06,0-.13,0-.21-.01-.08.1-.18.21-.29.34-.11.13-.24.28-.38.46-.06.04-.13.1-.22.16-.09.07-.19.15-.3.25-.17.17-.34.29-.51.37-.17.08-.33.12-.5.12-.08,0-.15-.01-.22-.03-.07-.02-.16-.06-.25-.12-.07-.04-.15-.08-.22-.14-.08-.06-.17-.13-.26-.22-.12-.36-.2-.69-.25-.99s-.08-.59-.08-.87c0-.05,0-.09-.01-.12,0-.03-.02-.06-.04-.08l-.08-.03-.06.03-.09.09c-.05-.13-.1-.26-.16-.4s-.12-.27-.19-.41ZM192.16,56.2s0-.05-.01-.08c0-.02-.03-.04-.05-.06-.04,0-.08.03-.12.12s-.09.21-.13.36c-.02.12-.08.25-.16.41s-.19.35-.32.56c-.11.19-.22.4-.33.63s-.21.48-.32.75c-.13.32-.23.59-.3.83s-.1.43-.1.58l.02.08s.12-.14.23-.34c.11-.21.25-.5.43-.89.16-.34.29-.61.37-.8.08-.19.13-.32.14-.39.05-.16.1-.34.17-.55s.14-.45.22-.7c.06-.1.11-.18.15-.25.04-.05.06-.09.08-.14s.03-.09.03-.13Z"/></svg>