<?xml version="1.0" encoding="UTF-8"?><svg xmlns="http://www.w3.org/2000/svg" viewBox="0 0 48 48"><rect width="48" height="48" fill="#fff"/><g id="Layer_1"><path d="M12,41.83s9.41,2.15,11.04-35.69" fill="#fff"/><path d="M12.33,40.37c1.53-.12,3.1-2.09,3.95-3.61,1.97-3.45,3.09-7.3,3.98-11.23.71-3.02,1.3-6.54,1.7-9.62.49-3.24.73-6.5,1.07-9.76-.08,3.27-.08,6.56-.32,9.84-.17,3.15-.49,6.72-.97,9.83-.82,5.25-2.78,16.16-8.94,17.48-1.18.3-2.54-.37-2.26-1.79.18-.81.99-1.31,1.8-1.13h0Z"/><path d="M36,41.83s-9.41,2.15-11.04-35.69" fill="#fff"/><path d="M36.34,43.3c-8.54.52-10.42-18.7-10.91-24.85-.28-4.07-.4-8.24-.46-12.3.33,3.26.58,6.53,1.07,9.76.87,6.32,2.05,12.97,4.62,18.79.97,2.07,2.16,4.39,4.24,5.47,0,0,.19.1.19.1.2.04.46.13.63.11,1.66-.41,2.72,2.29.63,2.93h0Z"/></g></svg>