<?xml version="1.0" encoding="UTF-8"?><svg id="Layer_1" xmlns="http://www.w3.org/2000/svg" viewBox="0 0 75 75"><path d="M22.27,58.42c-.11-.02,0,0,.04,0,.21,0,.44-.03.68-.11,0,0,.26-.07.26-.07l.26-.13c5.8-3.24,8.31-15.38,9.64-21.65,1.3-7.02,2.07-14.27,2.64-21.38-.16,6.11-.33,12.41-1.02,18.5-.69,6.72-1.79,13.45-4.34,19.79-1.33,2.93-3.05,6.01-6.05,7.51-.91.35-1.74.63-2.78.46-1.91-.48-1.26-3.33.67-2.92h0Z"/><path d="M53.4,61.35c-8.29.49-11.44-15.37-12.38-21.61-1.31-8.1-1.62-16.47-1.81-24.65.43,5.08.92,10.26,1.63,15.32,1.31,7.9,2.68,16.22,6.57,23.27,1.06,1.86,2.39,3.67,4.34,4.57.3.07.65.2.94.18.04,0,.15-.01.04,0,1.92-.41,2.59,2.45.67,2.92h0Z"/></svg>